<?xml version="1.0" encoding="UTF-8"?>
<svg id="Capa_1"
  xmlns="http://www.w3.org/2000/svg" version="1.1" viewBox="0 0 541.1 223.3">
  <!-- Generator: Adobe Illustrator 29.2.0, SVG Export Plug-In . SVG Version: 2.1.0 Build 108)  -->
  <defs>
    <style>
      .st0 {
        fill: #e94b35;
        stroke: #e94a35;
      }

      .st0, .st1, .st2 {
        stroke-width: .4px;
      }

      .st0, .st1, .st2, .st3 {
        stroke-miterlimit: 10;
      }

      .st1 {
        fill: #13b09c;
        stroke: #15b09c;
      }

      .st2, .st3 {
        fill: #ffffff;
        stroke: #ffffff;
      }

      .st3 {
        stroke-width: .4px;
      }
    </style>
  </defs>
  <g>
    <path class="st3" d="M238.4,105.5h-12.3v-49h12.3v49Z" />
    <path class="st3" d="M281.3,87.1v18.4h-9.2v-18.4c0-2.6-.7-4.7-2.2-6.5-1.5-1.8-3.3-2.7-5.4-2.7s-3.9.9-5.4,2.7c-1.5,1.8-2.2,4-2.2,6.5v18.4h-12.3v-36.8h9.2l1.4,5.4c3-3.9,6.6-5.9,10.9-5.9s7.9,1.9,10.9,5.6c3,3.7,4.5,8.2,4.5,13.3Z" />
    <path class="st3" d="M301.2,96.3h6.1v9.2h-12.3c-1.7,0-3.1-.6-4.3-1.8-1.2-1.2-1.8-2.6-1.8-4.3v-21.4h-6.1v-9.2h6.1v-12.3h12.3v12.3h6.1v9.2h-6.1v18.4Z" />
    <path class="st3" d="M311.9,87.1c0-5.1,1.5-9.5,4.5-13.3,3-3.7,6.6-5.6,10.9-5.6s7.9,2,10.9,5.9c2.4,2.8,3.8,6.1,4.3,10,0,1,.1,2,.1,3.1s0,2-.1,3.1h-20.9c.3,1.3,1,2.4,1.9,3.4,1.4,1.8,3.2,2.7,5.4,2.7,3.1,0,5.5-1.1,7.3-3.3l6.5,6.5c-3.6,4-8.2,6.2-13.8,6.5-5.3,0-9.4-1.9-12.4-5.6-3-3.7-4.5-8.2-4.5-13.3ZM321.5,84.1h14.6c-.3-1.3-.9-2.4-1.8-3.4-1.5-1.8-3.4-2.7-5.5-2.7s-3.9.9-5.4,2.7c-.9,1-1.6,2.2-1.9,3.4Z" />
    <path class="st3" d="M362.5,117.8c-7.7-.3-13.3-2.5-16.9-6.5l6.5-6.5c1.8,2.6,5.2,3.8,10.3,3.8s5.1-.6,6.5-1.8c1.4-1.2,2-2.6,2-4.2v-1.5c-2.8,3-6.2,4.5-10.1,4.5s-7.9-1.8-10.9-5.4c-3-3.6-4.5-7.9-4.5-13s1.5-9.5,4.5-13.3c3-3.7,6.6-5.6,10.9-5.6s7.9,1.9,10.9,5.6l1.4-5.1h9.2v33.8c0,4.2-1.8,7.7-5.4,10.7-3.6,3-8.4,4.5-14.6,4.5ZM362.5,96.3c2.1,0,3.9-.9,5.4-2.7,1.5-1.8,2.2-4,2.2-6.5s-.7-4.7-2.2-6.5c-1.5-1.8-3.3-2.7-5.4-2.7s-3.9.9-5.4,2.7c-1.5,1.8-2.2,4-2.2,6.5s.7,4.7,2.2,6.5c1.5,1.8,3.3,2.7,5.4,2.7Z" />
    <path class="st3" d="M399.1,74.1c3-3.9,6.6-5.9,10.9-5.9h3.1v9.7h-4.6c-2.1,0-3.9.9-5.4,2.7-1.5,1.8-2.2,4-2.2,6.5v18.4h-12.3v-36.8h9.2l1.4,5.4Z" />
    <path class="st3" d="M431.4,59.6c0,1.7-.6,3.1-1.8,4.3-1.2,1.2-2.6,1.8-4.3,1.8s-3.1-.6-4.3-1.8c-1.2-1.2-1.8-2.6-1.8-4.3s.6-3.1,1.8-4.3c1.2-1.2,2.6-1.8,4.3-1.8s3.1.6,4.3,1.8c1.2,1.2,1.8,2.6,1.8,4.3ZM431.4,105.5h-12.3v-36.8h12.3v36.8Z" />
    <path class="st3" d="M454.4,96.3h6.1v9.2h-12.3c-1.7,0-3.1-.6-4.3-1.8-1.2-1.2-1.8-2.6-1.8-4.3v-21.4h-6.1v-9.2h6.1v-12.3h12.3v12.3h6.1v9.2h-6.1v18.4Z" />
    <path class="st3" d="M491.3,100.2c-3,3.9-6.6,5.9-10.9,5.9s-7.9-1.9-10.9-5.6c-3-3.7-4.5-8.2-4.5-13.3s1.5-9.5,4.5-13.3c3-3.7,6.6-5.6,10.9-5.6s6.6,1.4,9.2,4.1v-3.6h12.3v36.8h-9.2l-1.4-5.4ZM482,96.3c2.1,0,3.9-.9,5.4-2.7,1.5-1.8,2.2-4,2.2-6.5s-.7-4.7-2.2-6.5c-1.5-1.8-3.3-2.7-5.4-2.7s-3.9.9-5.4,2.7c-1.5,1.8-2.2,4-2.2,6.5s.7,4.7,2.2,6.5c1.5,1.8,3.3,2.7,5.4,2.7Z" />
    <path class="st3" d="M523.3,106c-7.7-.3-13.3-2.5-16.9-6.5l6.5-6.5c1.8,2.2,5.2,3.3,10.3,3.3s5.1-1,5.2-3.1c0-2.1-1.9-3.4-5.5-4s-6.7-1.5-9.3-2.9c-2.6-1.4-3.9-3.8-3.9-7.1s1.3-6.1,3.9-8c2.6-2,5.8-2.9,9.5-2.9,6.1.3,11,1.7,14.6,4.3l-6.8,6.8c-1.9-.9-4.5-1.4-7.8-1.4s-3.1.4-3.1,1.3,1.7,1.4,5,2c3.4.6,6.7,1.7,10,3.6,3.3,1.8,4.9,4.7,4.9,8.5s-1.6,6.8-4.9,9.2c-3.3,2.4-7.3,3.6-11.9,3.6Z" />
  </g>
  <g>
    <path class="st3" d="M268.5,164.5c-8.7-.3-14.8-2.5-18.4-6.5l6.5-7.9c2.8,3.1,6.8,4.7,11.9,4.7s3.6-.5,5-1.5c1.4-1,2-2.3,2-4s-.7-2.9-2-3.7c-1.4-.8-3-1.3-5-1.3-5.1,0-9.4-1.4-13-4.2s-5.4-6.3-5.4-10.5,1.8-7.7,5.4-10.7c3.6-3,7.9-4.5,13-4.5,5.6.3,10.2,2.5,13.8,6.5l-6.5,6.5c-1.8-2.2-4.2-3.3-7.3-3.3s-3.6.5-5,1.5c-1.4,1-2,2.3-2,4s.7,2.9,2,3.7c1.4.9,3,1.3,5,1.3,5.1,0,9.4,1.4,13,4.2s5.4,6.3,5.4,10.5-1.8,7.7-5.4,10.7c-3.6,3-7.9,4.5-13,4.5Z" />
    <path class="st3" d="M289.9,145.6c0-5.1,1.5-9.5,4.5-13.3,3-3.7,6.6-5.6,10.9-5.6s7.9,2,10.9,5.9c2.4,2.8,3.8,6.1,4.3,10,0,1,.1,2,.1,3.1s0,2-.1,3.1h-20.9c.3,1.3,1,2.4,1.9,3.4,1.4,1.8,3.2,2.7,5.4,2.7,3.1,0,5.5-1.1,7.3-3.3l6.5,6.5c-3.6,4-8.2,6.2-13.8,6.5-5.3,0-9.4-1.9-12.4-5.6-3-3.7-4.5-8.2-4.5-13.3ZM299.5,142.5h14.6c-.3-1.3-.9-2.4-1.8-3.4-1.5-1.8-3.4-2.7-5.5-2.7s-3.9.9-5.4,2.7c-.9,1-1.6,2.2-1.9,3.4Z" />
    <path class="st3" d="M335.7,132.6c3-3.9,6.6-5.9,10.9-5.9h3.1v9.7h-4.6c-2.1,0-3.9.9-5.4,2.7-1.5,1.8-2.2,4-2.2,6.5v18.4h-12.3v-36.8h9.2l1.4,5.4Z" />
    <path class="st3" d="M371.1,153.8l8.7-26.6h9.7l-12.1,36.8h-12.5l-12.1-36.8h9.7l8.7,26.6Z" />
    <path class="st3" d="M404.8,118c0,1.7-.6,3.1-1.8,4.3-1.2,1.2-2.6,1.8-4.3,1.8s-3.1-.6-4.3-1.8c-1.2-1.2-1.8-2.6-1.8-4.3s.6-3.1,1.8-4.3c1.2-1.2,2.6-1.8,4.3-1.8s3.1.6,4.3,1.8c1.2,1.2,1.8,2.6,1.8,4.3ZM404.8,164h-12.3v-36.8h12.3v36.8Z" />
    <path class="st3" d="M409.4,145.6c0-5.1,1.5-9.5,4.5-13.3,3-3.7,7.1-5.6,12.4-5.6,5.6.3,10.2,2.5,13.8,6.5l-6.5,6.5c-1.8-2.2-4.2-3.3-7.3-3.3s-3.9.9-5.4,2.7c-1.5,1.8-2.2,4-2.2,6.5s.7,4.7,2.2,6.5c1.5,1.8,3.3,2.7,5.4,2.7,3.1,0,5.5-1.1,7.3-3.3l6.5,6.5c-3.6,4-8.2,6.2-13.8,6.5-5.3,0-9.4-1.9-12.4-5.6-3-3.7-4.5-8.2-4.5-13.3Z" />
    <path class="st3" d="M456.9,118c0,1.7-.6,3.1-1.8,4.3-1.2,1.2-2.6,1.8-4.3,1.8s-3.1-.6-4.3-1.8c-1.2-1.2-1.8-2.6-1.8-4.3s.6-3.1,1.8-4.3c1.2-1.2,2.6-1.8,4.3-1.8s3.1.6,4.3,1.8c1.2,1.2,1.8,2.6,1.8,4.3ZM456.9,164h-12.3v-36.8h12.3v36.8Z" />
    <path class="st3" d="M479.9,164.5c-5.1,0-9.4-1.9-13-5.6-3.6-3.7-5.4-8.2-5.4-13.3s1.8-9.5,5.4-13.3c3.6-3.7,7.9-5.6,13-5.6s9.4,1.9,13,5.6c3.6,3.7,5.4,8.2,5.4,13.3s-1.8,9.5-5.4,13.3c-3.6,3.7-7.9,5.6-13,5.6ZM479.9,154.8c2.1,0,3.9-.9,5.4-2.7,1.5-1.8,2.2-4,2.2-6.5s-.7-4.7-2.2-6.5c-1.5-1.8-3.3-2.7-5.4-2.7s-3.9.9-5.4,2.7c-1.5,1.8-2.2,4-2.2,6.5s.7,4.7,2.2,6.5c1.5,1.8,3.3,2.7,5.4,2.7Z" />
    <path class="st3" d="M518.2,164.5c-7.7-.3-13.3-2.5-16.9-6.5l6.5-6.5c1.8,2.2,5.2,3.3,10.3,3.3s5.1-1,5.2-3.1c0-2.1-1.9-3.4-5.5-4s-6.7-1.5-9.3-2.9c-2.6-1.4-3.9-3.8-3.9-7.1s1.3-6.1,3.9-8c2.6-2,5.8-2.9,9.5-2.9,6.1.3,11,1.7,14.6,4.3l-6.8,6.8c-1.9-.9-4.5-1.4-7.8-1.4s-3.1.4-3.1,1.3,1.7,1.4,5,2c3.4.6,6.7,1.7,10,3.6,3.3,1.8,4.9,4.7,4.9,8.5s-1.6,6.8-4.9,9.2c-3.3,2.4-7.3,3.6-11.9,3.6Z" />
  </g>
  <g>
    <path class="st1" d="M88.9,58.9l-3.3,3.8c2.9,3.9,6.1,6.2,7.8,11,.8,2.4.8,6,1.8,8.1s2.4,2.3,2.8,4c-1.6,2-2.3,4.4-4.7,5.9-2.1,1.3-1.8,0-2.2-.1s-2.3,2.8-3.4,1.1c-1-1.6,1.2-4.2-1.1-7.6-3.7-3.8-8.6-7.2-12.2-10.9-1.4-1.4-2.3-3.1-3.1-4.8h-1.3c-.2-4.3-2.1-8.6-3.4-12.8-1-3.5-1.1-7.2-3.3-10.3-3.4.2-6.4.1-6.7-4.3-.2-3,.3-6.8-.6-9.8s-1-2-1.4-3.1c-1.1-3-1.1-6.9-2.5-9.9,1-3.7,5-8.1,8.8-5.6.6.4,5.5,5,6,5.6.9,1.2.9,2.5,1.6,3.4s1.9.7,2.7,1.2c1.5.9,1.7,2.5,2,4.1.6,2.9.5,4.5,1.3,7.5.4,1.5.5,3.9,1.1,5s3.7,3.2,4.9,4.8c3.3,4.2,4.8,9.8,8.6,13.5ZM91.1,82.3c.6,0-.4-2.7-.6-3-1.2-2.6-3-5.9-4.9-8.1s-4.7-5-5-5.1c-.7-.3-1.9.8-2.6,1.1.5.7.5,1.6.9,2.4,1.3,2.5,3.1,3.1,4.8,5.1,2.4,2.6,3.8,6,7.3,7.5Z" />
    <path class="st1" d="M14.9,153.1l.6.7,3.7-1.3-.6-5.3c1.1-1.1,2.3-2,3.4-3.1s1.7-2.8,2.1-3.1,1.2-.3,1.9-.9.4-1.1.6-1.3,1.5-.7,2-1c1.4-.9.7-.4,2.1-1,1.2-.5,6-3.5,6.7-3.2s.4.6.5.7,1.3-.7,1.9-.8c1.5-.3,5,.3,6.3,0,4.8-1.4,10.4-7.3,15.8-8.1,1.1-.2,2.4.1,3.5-.1.8-.2,1.5-.7,2.2-.9s2,.6,2.9.3c3.1-.9,6.4-7,8,0,.5-.6,4.2-1.9,4.6-1.7.8.3,2,3.5,2.3,4.4s-.3,1.1-1.1,1.3c-1.2.4-1.1-.6-1.8-.7s-2.1.3-2.6.7c1,2.4-1.1,2-1.9,2.8s-.3,1.3-.7,1.6-1.5.4-2.1.8c-2.5,1.5-5.6,4.8-7.6,5.9-.8.4-1.8.3-2.8.9-2.9,1.6-6,4.7-8.6,6.8-.6.5-3.1,2.7-3.4,2.9-1.4.8-4.2.8-5.7,1.7-1.3.7-2.3,2.3-3.7,2.9l7.9-1.2c.7-.9,1.7-1.6,2.5-2.5s0-1.2,1.2-1.3l.4.8.6-1c.9-.3.5,2,.4,2.4-.5,3.1-2.5,2.4-3.5,3.9s.3.8.2.9c0,.2-3,.9-3.5,1.2-2.7,1.2-3.5,1.5-6.2,2.3-3.4,1-5.5,2.8-8.4,4-.6.2-1.2,0-1.8.3-1.4.7-1,1-2.9,1.4-.4,0-.5.6-1.3.3-1.7-.6-3.9-3.9-5.5-4.6s-1.4.3-2.1.2c-1.2-.2-.9-1.7-2.4-.4-1.1,1-1.3,2.5-3.1,3.2-.9.4-3.8.7-4.6.2s-3.5-3.9-3.7-5.1.1-2.1.2-2.2c.7-1.3,2.3-1.1,3.1-1.4s2.1-1.1,2.3-1.2c.6-.4.8-1.6,1.6-1.8ZM39.9,137.3l-1.6-.4-7,5.6c3.1-1.4,5.9-3.2,8.6-5.2ZM73.7,128.1c-3.4,2.8-8.9,1.5-12.2,3.6s-.9,1.7-1.3,2-1,.2-1.6.6c-1.6,1.1-2.9,2.9-4.4,4.2,1.4-.8,3.4-1.3,4.8-2,2.4-1.2,4.6-2.7,6.9-4,2.3-1.3,4.8-2.4,7.1-3.7s1.1-.3.8-.7Z" />
    <path class="st2" d="M88.1,91.6c-1,0-4.5,2.8-5.5.4l-.5.7c-2.4-2.5-5.6-3.2-8.3-5.4-3.3-2.7-6.7-5.4-10.1-8.1-2.3-1.9-8.1-5.3-8.9-8.3-.1-.4.4-.7,0-1.3-1.9-3.8-10.4-9.3-14.2-11.1-1.9-.9-4-1.8-6.1-2.2-.1,0-.3,0-.4,0-2.3.8-4.6,4.2-7.2,3.2-1.1-.4-2.3-2.6-3.2-3.5-.3-.3-2.5-2.1-2.8-2.2-1.7-1-5.3,1-6.2,2.5-.7,1.3-.5,4.2.5,5.2.2.2,4.1,2.7,4.5,3,1.2.7,4.2.5,4.2,2.3,0,1.1-2,5-2,6.1,0,.1,0,.2.1.3,2.9,4.1,6.5,10.3,10.8,12.8.8.5,9.5,3.2,10,3.1.4,0,.5-.7.8-.5.7.3,2.3,1.8,3.2,2.4,5,3.2,9.7,5.3,14.9,7.8,3,1.5,6.5,5.1,9.3,5.7.4.1,1.2-.2,1.4,0,.2.1,0,.8.6,1,.4.2,1.3-.3,1.8,0,.4.3.6,1.9.9,2.5.7,1.3,1.7,2.3,2.9,3,.2,0,.4.1.5,0,1.8-.5,2.4-2.9,1.3-4.6-1-1.6-3.6-4.5-5.1-5.4-1-.5-1.8.3-2.5-1.5l-.6.3c-3.2-3.4-6.9-5.9-10.2-8.9-1.8-1.6-3.3-3.5-5.2-4.9.4-.4.8,0,1.1.1,1.8.6,4.9,1.8,6.5,2.7,2.1,1.2,3.7,3.4,5.6,4.4,1,.6,2.3.6,3.4,1,1.8.7,4.2,2.3,5.7,3.5.4.3.2.9.6,1.1.1.1.4-.4.6-.3.4.2,1.1.9,1.6,1.3.3.2.6.2.9,0,1.9-1.6,5.5-4.2,6.1-6.6.1-.5-.7-1.8-1.2-1.8ZM39.3,83.7c-1.9-1.3-4.1-.9-5.6-2.7-.3-.3-1.8-2.7-1.7-2.9,2.5,1.4,6.7,2.4,7.3,5.6ZM49.5,70.2l-3.2-1.3c-.1,0-.2-.1-.3-.2l-2.3-2.7,5.8,4.2Z" />
    <path class="st2" d="M66.8,152.4l4.8,1.3c2-4.4,2.5-8.4,5.9-12.2,1.7-1.9,4.8-3.5,6.2-5.3.9-1.2.9-3.3,2.2-4.4,2.4.6,4.9.1,7.2,1.6,2.1,1.3.8,1.7.9,2.1s3.4.9,2.5,2.7c-.9,1.7-4.2.8-6,4.5-1.6,5.1-2.2,11.2-3.8,16.3s-1.6,3.5-2.7,5.1l.6,1.2c-3.6,2.1-6.4,5.9-9.5,8.9-2.5,2.5-5.7,4.3-7.3,7.8,1.7,3.1,3,5.8-.6,8.1-2.5,1.6-5.9,2.8-8.1,5-.8.8-1.2,1.9-2,2.7-2.1,2.3-5.4,4.2-7.3,6.8-3.7.8-9.2-.9-8.8-5.6s1.8-7.4,2.1-8.1c.6-1.3,1.8-2,2.2-3.1s-.3-2.1-.2-3c.1-1.8,1.4-2.7,2.6-3.7,2.2-1.8,3.6-2.5,5.8-4.7,1.1-1,3.1-2.2,3.8-3.3.7-1.2,1.1-4.9,1.9-6.7,2.2-4.9,6.2-8.8,7.7-14.1ZM85.9,139.8c-.2-.6-2.1,1.6-2.3,1.9-1.7,2.3-3.7,5.5-4.7,8.2-.3.8-2.2,6.6-2.1,7,0,.8,1.6,1.3,2.1,1.9.4-.8,1.2-1.3,1.6-2,1.6-2.3,1.3-4.3,2.1-6.8,1.2-3.4,3.4-6.3,3.2-10.2Z" />
    <path class="st2" d="M165.6,35.1l-.8-.3-2.7,3.1,3,4.3c-.5,1.5-1.1,2.9-1.4,4.5s-.2,3.4-.3,3.8-.9.9-1.2,1.8.2,1.2,0,1.5-1,1.4-1.3,1.9c-.8,1.6-.4.8-1.4,2s-3.5,6.2-4.3,6.2-.6-.4-.8-.3-.8,1.3-1.3,1.7c-1.1,1-4.6,2.3-5.5,3.4-3.6,3.7-5.7,11.8-10,15.3-.9.7-2.1,1.1-3,1.9s-.9,1.4-1.5,1.9-2,.5-2.7,1.2c-2.3,2.4-2.2,9.5-7,4.2-.1.8-2.8,3.8-3.2,3.9-.8.1-3.5-2-4.1-2.7s-.2-1.1.3-1.7c.8-.9,1.3,0,1.9-.3s1.7-1.4,1.9-1.9c-2-1.6,0-2.3.3-3.4.2-.5-.4-1.2-.2-1.7s1.1-1.1,1.5-1.8c1.4-2.6,2.6-7.1,3.9-9.2s1.4-1.3,2-2.2c1.8-2.9,3-7.2,4.3-10.4.3-.8,1.4-4,1.6-4.3.8-1.5,3.3-2.9,4.2-4.5s.9-3.2,1.8-4.4l-6.3,5.2c-.2,1.2-.7,2.3-1,3.5,0,.3.6,1.1-.5,1.8l-.7-.5v1.2c-.7.7-1.5-1.5-1.6-1.9-1.1-3,1.1-3.4,1.2-5.3s-.6-.6-.6-.7c0-.2,2.2-2.3,2.5-2.9,1.8-2.4,2.4-3.1,4.3-5.2,2.5-2.7,3.5-5.3,5.5-7.9.4-.5,1.1-.6,1.5-1.2.9-1.3.4-1.4,1.9-2.8s0-.8,1-1c1.7-.3,5.3,1.4,7,1.2s1.1-1,1.7-1.2c1.1-.4,1.6,1,2.3-.9.5-1.4,0-2.8,1.1-4.4.6-.8,3-2.6,4-2.5s5,1.6,5.7,2.5.9,1.9.9,2c0,1.5-1.5,2.2-2,2.9-.1.2-1.3,2.1-1.4,2.3-.3.6,0,1.8-.6,2.4ZM151.2,61.9l1.6-.5,3.5-8.6c-2,2.8-3.6,5.9-5.1,9ZM125.9,87.6c1.6-4.2,7.1-5.9,8.9-9.5s0-1.9.2-2.4.8-.7,1.1-1.3c.9-1.8,1.2-4.1,1.9-5.9-.9,1.4-2.3,2.9-3.2,4.2-1.5,2.3-2.7,4.8-4.2,7.1s-3.1,4.5-4.4,6.9-.8.8-.3,1.1Z" />
    <path class="st0" d="M47.3,104.1c-.2,0-.5,0-.7.1-3.1,2.1-4.8.1-6.7.5s-5.1,2.4-6.2,3.1-.7,0-.6.7c1.2-1.3,2,.6,2.2.6.4,0,1.3-.6,1.8-.8,3.8-1,12.8-1.6,16.7-1.1,1.7.2,1.1,2.4,1.6,2.9,1.2,1.1,6.1-.5,7.8-.5,4,0,8.7,1.6,12.9,1.5,3.5,0,8.7-3.3,7.7,3.3l-1,.3c.6.9.2,3.2-.8,3.5l-7-.5c-3.8.2-7.8,2.5-11.5,2.9-2.5.3-4.9-.4-7.3,0l-1.5,3.8c-2.6,0-6.9-.8-9.4-.3-.6.1-1,.8-1.8,1.1-2.4.9-6.9.9-9,1.9s-.4.8-.6.9-.8-.5-1.1-.6c-2.8-.8-6.7-1.2-9.7-1.5s-4.8.4-6.8-.7c-1.5-.8-1.5-5.6-3.2-6.4-.9-.2-.2,2.1-.5,2.6-1.1-.1-3,1.2-3.5,1.2s-1-.5-1.6-.5c-2,0-3.6,1.7-5.6-.2s-1.8-3.6-1.6-4.7.9-1.3,1-1.9c.4-1.4-.2-2.1,1.4-3.3,3.4-2.6,8,.5,11.1-1.2,1.6-.9,1.5-4.4,3-4.9s1.3.2,2.1.2c1.7,0,1.8-.2,3.5,0,7,.3,13.4-3.5,20.5-3.8,1.6,0,4.3-.2,4.7,1.8ZM39.6,123.6l-3.6-.9-1.8,1.2c1.6-.5,2.9-.1,4.4,0s1.1.2,1-.3ZM74.7,114.5h-4.1c-.3,0-1.2.6-1.9.3v.3s6,0,6,0v-.6Z" />
    <path class="st1" d="M124.8,174.2c0,.2.2.5.4.6,3.3,1.9,2.3,4.3,3.6,6s4.4,3.6,5.5,4.3c.4.2.3.7.9.2-1.7-.5-.4-2.1-.5-2.3-.2-.3-1.1-.9-1.5-1.3-2.7-3.1-7.2-11-8.6-14.9-.6-1.6,1.6-2.1,1.8-2.8.4-1.6-3.3-5.4-4-6.9-1.9-3.7-2.7-8.7-4.7-12.5-1.7-3.2-6.8-6.5-.8-8.6l.7.8c.5-1,2.6-1.7,3.3-.9l2.8,6.7c2,3.4,5.7,6,7.8,9.2,1.4,2.1,2,4.7,3.5,6.7l3.9-.4c1.1,2.4,2.5,6.7,4.1,8.7.4.5,1.2.5,1.8,1.1,1.8,1.8,4,5.9,5.7,7.4.3.3.9,0,1,.2s0,.9,0,1.3c.6,3,2.1,6.7,3.2,9.6.8,2,2.6,4.2,2.6,6.5s-4.1,4-4,5.9c.2.9,1.9-.8,2.4-.8.4,1,2.4,2.2,2.7,2.7s0,1.2.3,1.7c.9,1.9,3.1,2.5,2.4,5.3-.3,1.1-2.2,3.3-3.2,3.7s-1.5-.2-2.1,0c-1.4.3-1.7,1.2-3.5.3-3.7-1.9-3.3-7.6-6.2-9.6-1.5-1-4.4.6-5.6-.6-.6-.6-.4-1.3-.8-2-.9-1.5-.9-1.5-1.7-3.2-3-6.6-9.2-10.7-12.7-17.1-.8-1.4-2.1-3.8-.7-5.1ZM145,172.2l.9,3.7,1.9,1.2c-1.2-1.3-1.4-2.6-2-4.1-.1-.3-.3-1.1-.7-.8ZM121,144.2l1.9,3.8c.1.3,1.1.9,1.1,1.6h.3c0-.1-2.8-5.6-2.8-5.6l-.5.3Z" />
    <path class="st2" d="M119.3,142.8c1,.1,4.6-2.6,5.5-.2l.5-.7c2.3,2.5,5.4,3.4,8.1,5.7,3.2,2.8,6.5,5.6,9.8,8.5,2.3,2,7.9,5.6,8.6,8.6.1.4-.4.7-.1,1.3,1.8,3.8,10.1,9.6,13.8,11.6,1.9,1,3.9,1.9,6,2.4.1,0,.3,0,.4,0,2.4-.7,4.7-4,7.3-3,1,.4,2.2,2.7,3.1,3.7.3.3,2.5,2.2,2.8,2.3,1.7,1,5.4-.8,6.3-2.3.7-1.2.7-4.2-.3-5.2-.2-.2-4-2.8-4.4-3.1-1.2-.7-4.2-.6-4.1-2.4,0-1.1,2.2-4.9,2.2-6,0-.1,0-.2-.1-.3-2.7-4.2-6.1-10.6-10.4-13.2-.8-.5-9.4-3.5-9.9-3.5-.4,0-.5.6-.8.5-.7-.3-2.2-1.9-3.1-2.5-4.9-3.3-9.5-5.6-14.6-8.4-2.9-1.6-6.3-5.3-9.1-6.1-.4-.1-1.2.1-1.4,0-.2-.1,0-.8-.6-1.1-.4-.2-1.3.3-1.8,0-.4-.3-.6-1.9-.9-2.5-.6-1.3-1.6-2.4-2.8-3.1-.2-.1-.4-.1-.5-.1-1.9.4-2.5,2.8-1.5,4.5,1,1.6,3.4,4.7,4.9,5.6.9.6,1.9-.2,2.4,1.6l.6-.3c3.1,3.5,6.7,6.2,9.9,9.3,1.7,1.7,3.2,3.6,5,5.1-.4.4-.8,0-1.1-.2-1.8-.7-4.9-1.9-6.4-3-2.1-1.3-3.6-3.5-5.5-4.7-1-.6-2.3-.7-3.4-1.1-1.8-.8-4.1-2.5-5.5-3.7-.3-.3-.2-.9-.6-1.2-.1-.1-.4.4-.6.3-.4-.2-1.1-.9-1.6-1.3-.3-.2-.6-.2-.9,0-1.9,1.6-5.6,3.9-6.4,6.4-.1.5.6,1.8,1.1,1.8ZM167.8,152.4c1.8,1.3,4.1,1,5.5,2.9.2.3,1.7,2.8,1.6,2.9-2.4-1.5-6.6-2.7-7.1-5.8ZM157.1,165.5l3.2,1.5c.1,0,.2.1.3.2l2.2,2.8-5.6-4.5Z" />
    <path class="st0" d="M122.1,26.8c-.4-2.3-1.1-4.7-1.7-7,0-.2-.2-.4-.3-.5-2.1-1.4-4.9-1.9-6.3-4.1-.2-.3-.2-.6,0-.9l1.5-2.3c0-.1.1-.2.1-.4.1-2.4,1.5-7.2-.2-8.8-2.6-2.4-7.9-1-8.6,2.8-.2,1.1-.5,4.7-.1,5.6.2.5.8.8,1,1.3.6,1.9-.3,1.5-.9,2.2-2.6,3.4-4.9,2.1-6.9,4-.3.3-2,3.5-2.1,4-.3,1.8.2,3.9-.2,5.6-1.4,6-1,12.2,1,18,2.2,6,1.7,7.5,1.3,14.2,0,1.4.4,3.6.2,4.8-.6,2.8-1.8,4.5-2,8-.2,3,.6,7.7.3,10.2-.1,1.2-1.4,2.2-.8,4.1,0,.2,0,.5,0,.7-.7,1.1-1.6,4.4-1.8,5.9,0,0,0,2,2.5,2,1.5,0,1.8-.5,2.4-1.8.6-1.6,2.1-6.1,2.2-7.6.1-1.1-.4-3.4-.3-4.5.2-2.9,2.1-7,2.7-10,.5-2.4.2-5.3,1.3-7.4.1-.2.6-.2.6-.4,0-.4-.4-.8-.3-1.5.1-1.1,1-1.5,1.2-1.8.9-2.2,1.1-4.8,2.1-7,.8,3.5,1.1,7.1,1.4,10.7.4,4,.9,10.3.6,14.5-.3,4.8-1.3,8.6,1.2,13.2.9,1.7,2.8,1.9,4.2.8.2-.1.3-.3.3-.5.4-2.6-1.1-4.4-1.9-6.7,2.5-.4,1-1.7.9-2.8-.2-4.3,1.6-6.9,1.8-10.6,0-.9-.4-1.6-.2-2.8.1-.7.8-1.3.9-2.1.1-1.5-1.2-2.5-1.2-3.6,0-.6.5-1.3.6-2,.1-1.4-.1-2.9,0-4.2.2-1.5,1.2-2.7,1.5-4.1.2-1.2-.2-2.8.1-3.8.2-.7,1.4-1.4,1.8-2,2.3-3.7,1-16.8.2-21.3ZM101.6,43c0,0-.5-1.7-.5-1.8v-5.8l.6,5.7-.2,1.8ZM119.3,45.7c-.5,0-.6-1-.7-1.4-.9-3.4-1.2-7.2-1.2-10.7.5,0,.4.6.5,1,.3,1.3.5,2.8.7,4.2.2,1,0,2.1.1,3.2.2,1.3,1.5,2.1.6,3.9Z" />
    <path class="st0" d="M90,200.9c.3,2.1,1,4.2,1.5,6.2,0,.2.1.3.3.4,1.8,1.3,4.4,1.7,5.7,3.6.2.2.1.6,0,.8l-1.3,2c0,.1-.1.2-.1.4-.1,2.1-1.4,6.5.1,7.9,2.3,2.1,7.1.9,7.7-2.5.2-1,.4-4.2.1-5-.2-.4-.7-.7-.9-1.2-.5-1.7.3-1.4.8-2,2.3-3,4.4-1.9,6.2-3.6.3-.2,1.8-3.1,1.9-3.6.3-1.6-.2-3.4.2-5,1.2-5.3.9-10.9-.9-16.1-2-5.4-1.5-6.7-1.1-12.7,0-1.2-.4-3.2-.1-4.3.5-2.5,1.6-4.1,1.8-7.2.2-2.7-.5-6.9-.3-9.1.1-1.1,1.2-2,.7-3.7,0-.2,0-.4,0-.6.6-1,1.5-3.9,1.6-5.3,0,0,0-1.8-2.2-1.8-1.3,0-1.6.4-2.1,1.6-.6,1.4-1.8,5.5-2,6.8,0,1,.3,3,.3,4.1-.2,2.6-1.9,6.3-2.4,8.9-.4,2.1-.1,4.7-1.2,6.6-.1.2-.6.2-.6.4,0,.4.3.7.2,1.4-.1.9-.9,1.3-1.1,1.6-.8,1.9-1,4.3-1.8,6.3-.7-3.1-1-6.4-1.3-9.6-.3-3.6-.8-9.2-.6-13,.2-4.3,1.2-7.7-1.1-11.8-.8-1.5-2.5-1.7-3.7-.7-.1.1-.2.3-.3.5-.3,2.3,1,4,1.7,6-2.3.4-.9,1.5-.8,2.5.2,3.8-1.4,6.2-1.6,9.5,0,.8.4,1.5.2,2.5-.1.6-.7,1.2-.8,1.9-.1,1.3,1.1,2.2,1.1,3.2,0,.6-.5,1.2-.5,1.8,0,1.2.1,2.6,0,3.8-.2,1.3-1.1,2.4-1.3,3.6-.2,1.1.1,2.5-.1,3.4-.2.6-1.3,1.2-1.6,1.8-2,3.3-.9,15-.2,19.1ZM108.4,186.4c0,0,.4,1.5.4,1.6v5.2s-.6-5.1-.6-5.1l.2-1.6ZM92.5,184c.4,0,.5.9.6,1.3.8,3,1,6.5,1.1,9.6-.4,0-.3-.6-.4-.9-.3-1.2-.5-2.5-.7-3.7-.1-.9,0-1.9,0-2.8-.2-1.1-1.3-1.9-.5-3.4Z" />
    <path class="st0" d="M203.7,130.4v-.9c-.1,0-3.9-.9-3.9-.9l-2.2,4.8c-1.5.3-3,.4-4.4.8-1,.3-2.9,1.5-3.3,1.6s-1.2-.4-2.1-.2-.9.7-1.2.8-1.6-.3-2.2-.3c-1.7,0-.8,0-2.3-.3-1.3-.2-6.9-.2-7.3-.9s0-.8-.1-.9-1.4-.2-2-.4c-1.4-.5-4.1-3-5.4-3.4-4.8-1.4-12.6.5-17.6-1.7-1-.5-1.9-1.4-3.1-1.8s-1.6-.2-2.3-.5c-.8-.3-1.4-1.6-2.3-1.9-3.1-.9-9,2.5-6.8-4.3-.7.2-4.5-.7-4.8-1-.5-.7,0-4.1.3-5s.9-.8,1.6-.6c1.2.3.6,1.1,1.2,1.6s2,.9,2.5.8c.4-2.5,1.9-1.2,3-1.3s.9-.9,1.4-1,1.5.4,2.2.5c2.9,0,7.2-1,9.5-.9s1.7.7,2.8.8c3.3.2,7.4-.7,10.7-1.1s4.1-.6,4.4-.6c1.6,0,4,1.6,5.7,1.7s3.1-.7,4.6-.4l-7.3-3.2c-1.1.4-2.3.5-3.4.8s-.6,1-1.7.4v-.9c0,0-1,.5-1,.5-.9-.2.6-2,.8-2.3,2-2.4,3.3-.7,5-1.4s.2-.8.3-.9c.1-.1,3,.8,3.6.9,2.9.4,3.7.7,6.4,1.4s6.1.6,9.2,1.2c.6.1,1,.7,1.7.8,1.5.1,1.3-.3,3.2.4s.7-.3,1.3.4c1.1,1.4,1.4,5.5,2.3,6.9s1.3.5,1.9,1c.9.8,0,1.9,1.8,1.6,1.4-.2,2.4-1.4,4.3-1.1s3.6,1.5,4,2.4c.6,1.2,1,5.2.6,6.3,0,.1-1.2,1.7-1.2,1.8-1.2.7-2.6-.3-3.4-.5s-2.4-.2-2.5-.2c-.7,0-1.5.9-2.3.7ZM174.4,130.2l1.1,1.2,8.8-1c-3.3-.5-6.6-.4-9.9-.3ZM141,119.6c4.2-.5,8.3,3.6,12.2,3.5,1.5,0,1.6-.9,2.1-1s1,.4,1.7.4c1.9,0,4-.9,5.9-1.1-1.6-.1-3.5-.8-5-.9-2.6-.3-5.3-.2-7.9-.4s-5.2-.6-7.9-.7c-.4,0-1.1-.3-1,.2Z" />
    <path class="st1" d="M158.5,99.8l-3.6-3.5c-3.8,2.9-6.1,6.2-10.8,7.8s-5.8.7-7.9,1.6-2.3,2.5-4,2.8c-1.9-1.7-4.2-2.5-5.5-5-1.2-2.2,0-1.9.2-2.3s-2.6-2.5-1-3.6,4,1.4,7.4-1c3.7-3.7,7.1-8.8,10.8-12.4,1.4-1.4,3-2.3,4.7-3.1v-1.4c4.2,0,8.4-2,12.4-3.2s7-1,10-3.2c0-3.5,0-6.6,4.3-6.8s6.5.5,9.4-.4c1.1-.3,2-1,3-1.4,2.9-1,6.7-1,9.6-2.4,3.6,1.1,7.6,5.4,5.1,9.3-.4.6-5,5.6-5.6,6.1-1.1.9-2.5.9-3.3,1.6s-.7,2-1.2,2.8c-.9,1.5-2.4,1.7-4,2-2.8.5-4.3.4-7.3,1.2-1.4.4-3.8.4-4.9,1-1.2.6-3.2,3.7-4.8,5-4.2,3.3-9.5,4.7-13.3,8.6ZM135.9,101.5c0,.6,2.6-.4,2.9-.5,2.6-1.1,5.8-3,7.9-4.9s4.9-4.7,5.1-5.1c.3-.7-.8-2-1-2.7-.7.5-1.6.5-2.3.9-2.5,1.3-3.1,3.1-5,4.9-2.6,2.4-5.9,3.8-7.4,7.4Z" />
  </g>
</svg>